# xmcd
#
# Track frame offsets:
#	150
#	19466
#	42277
#	60149
#	78474
#	97852
#	119682
#	143726
#	157755
#	180878
#	200764
#	220671
#
# Disc length: 3248 seconds
#
# Revision: 1
# Processed by: cddbd v1.5.2PL0 Copyright (c) Steve Scherf et al.
# Submitted via: EZCDAudioConverter 8.0.2.1
#
DISCID=950cae0c
DTITLE=Nguyễn Phi Hùng - Vol 09. Một Cõi Riêng Mang
DYEAR=2004
DGENRE=World Pop
TTITLE0=Tình ơi! Có lẽ
TTITLE1=Một Cõi Riêng Mang
TTITLE2=Nếu kiếp sống phải chờ đợi
TTITLE3=Trái đắng
TTITLE4=Vẫn thấy em đẹp hơn
TTITLE5=Con đường mưa gió
TTITLE6=Người đàn ông đang yêu
TTITLE7=Bước chân Digan
TTITLE8=Thêm một lần chia tay
TTITLE9=Vầng trăng cô đơn
TTITLE10=Xin em hãy gõ 3 tiếng
TTITLE11=Sinh nhật một mình
EXTD=
EXTT0=
EXTT1=
EXTT2=
EXTT3=
EXTT4=
EXTT5=
EXTT6=
EXTT7=
EXTT8=
EXTT9=
EXTT10=
EXTT11=
PLAYORDER=
